<mxfile host="app.diagrams.net" modified="2024-01-29T17:27:32.287Z" agent="Mozilla/5.0 (Windows NT 10.0; Win64; x64) AppleWebKit/537.36 (KHTML, like Gecko) Chrome/120.0.0.0 Safari/537.36" etag="VycJTTZTpM4dx9WWNXwp" version="23.0.2" type="device">
  <diagram id="R2lEEEUBdFMjLlhIrx00" name="Page-1">
    <mxGraphModel dx="1434" dy="1846" grid="1" gridSize="10" guides="1" tooltips="1" connect="1" arrows="1" fold="1" page="1" pageScale="1" pageWidth="850" pageHeight="1100" math="0" shadow="0" extFonts="Permanent Marker^https://fonts.googleapis.com/css?family=Permanent+Marker">
      <root>
        <mxCell id="0" />
        <mxCell id="1" parent="0" />
        <mxCell id="Nr2SSn5EmaQHxqe58D5D-45" style="edgeStyle=orthogonalEdgeStyle;rounded=0;orthogonalLoop=1;jettySize=auto;html=1;exitX=0;exitY=0;exitDx=0;exitDy=0;entryX=1;entryY=0.5;entryDx=0;entryDy=0;" edge="1" parent="1" source="Nr2SSn5EmaQHxqe58D5D-1" target="Nr2SSn5EmaQHxqe58D5D-2">
          <mxGeometry relative="1" as="geometry" />
        </mxCell>
        <mxCell id="Nr2SSn5EmaQHxqe58D5D-61" style="edgeStyle=orthogonalEdgeStyle;rounded=0;orthogonalLoop=1;jettySize=auto;html=1;exitX=0.5;exitY=0;exitDx=0;exitDy=0;entryX=0.5;entryY=1;entryDx=0;entryDy=0;" edge="1" parent="1" source="Nr2SSn5EmaQHxqe58D5D-1" target="Nr2SSn5EmaQHxqe58D5D-60">
          <mxGeometry relative="1" as="geometry" />
        </mxCell>
        <mxCell id="Nr2SSn5EmaQHxqe58D5D-1" value="EMPLEADO&amp;nbsp;" style="rounded=0;whiteSpace=wrap;html=1;" vertex="1" parent="1">
          <mxGeometry x="180" y="160" width="160" height="60" as="geometry" />
        </mxCell>
        <mxCell id="Nr2SSn5EmaQHxqe58D5D-2" value="nombre" style="ellipse;whiteSpace=wrap;html=1;" vertex="1" parent="1">
          <mxGeometry x="40" y="100" width="110" height="50" as="geometry" />
        </mxCell>
        <mxCell id="Nr2SSn5EmaQHxqe58D5D-13" style="edgeStyle=orthogonalEdgeStyle;rounded=0;orthogonalLoop=1;jettySize=auto;html=1;exitX=1;exitY=0.5;exitDx=0;exitDy=0;entryX=0;entryY=0.5;entryDx=0;entryDy=0;" edge="1" parent="1" source="Nr2SSn5EmaQHxqe58D5D-4" target="Nr2SSn5EmaQHxqe58D5D-1">
          <mxGeometry relative="1" as="geometry" />
        </mxCell>
        <mxCell id="Nr2SSn5EmaQHxqe58D5D-4" value="salario" style="ellipse;whiteSpace=wrap;html=1;" vertex="1" parent="1">
          <mxGeometry x="40" y="165" width="110" height="50" as="geometry" />
        </mxCell>
        <mxCell id="Nr2SSn5EmaQHxqe58D5D-14" style="edgeStyle=orthogonalEdgeStyle;rounded=0;orthogonalLoop=1;jettySize=auto;html=1;exitX=1;exitY=0.5;exitDx=0;exitDy=0;entryX=0;entryY=1;entryDx=0;entryDy=0;" edge="1" parent="1" source="Nr2SSn5EmaQHxqe58D5D-5" target="Nr2SSn5EmaQHxqe58D5D-1">
          <mxGeometry relative="1" as="geometry" />
        </mxCell>
        <mxCell id="Nr2SSn5EmaQHxqe58D5D-5" value="apellido&amp;nbsp;" style="ellipse;whiteSpace=wrap;html=1;" vertex="1" parent="1">
          <mxGeometry x="40" y="230" width="110" height="50" as="geometry" />
        </mxCell>
        <mxCell id="Nr2SSn5EmaQHxqe58D5D-6" value="fecha_inicio" style="ellipse;whiteSpace=wrap;html=1;" vertex="1" parent="1">
          <mxGeometry x="140" y="260" width="110" height="50" as="geometry" />
        </mxCell>
        <mxCell id="Nr2SSn5EmaQHxqe58D5D-7" value="ID_empleado" style="ellipse;whiteSpace=wrap;html=1;" vertex="1" parent="1">
          <mxGeometry x="130" y="50" width="110" height="50" as="geometry" />
        </mxCell>
        <mxCell id="Nr2SSn5EmaQHxqe58D5D-15" style="edgeStyle=orthogonalEdgeStyle;rounded=0;orthogonalLoop=1;jettySize=auto;html=1;exitX=0.5;exitY=0;exitDx=0;exitDy=0;entryX=0.394;entryY=0.967;entryDx=0;entryDy=0;entryPerimeter=0;" edge="1" parent="1" source="Nr2SSn5EmaQHxqe58D5D-6" target="Nr2SSn5EmaQHxqe58D5D-1">
          <mxGeometry relative="1" as="geometry" />
        </mxCell>
        <mxCell id="Nr2SSn5EmaQHxqe58D5D-22" style="edgeStyle=orthogonalEdgeStyle;rounded=0;orthogonalLoop=1;jettySize=auto;html=1;exitX=0;exitY=0.5;exitDx=0;exitDy=0;entryX=0.5;entryY=0;entryDx=0;entryDy=0;" edge="1" parent="1" source="Nr2SSn5EmaQHxqe58D5D-16" target="Nr2SSn5EmaQHxqe58D5D-20">
          <mxGeometry relative="1" as="geometry" />
        </mxCell>
        <mxCell id="Nr2SSn5EmaQHxqe58D5D-23" style="edgeStyle=orthogonalEdgeStyle;rounded=0;orthogonalLoop=1;jettySize=auto;html=1;exitX=0.25;exitY=1;exitDx=0;exitDy=0;entryX=0.5;entryY=0;entryDx=0;entryDy=0;" edge="1" parent="1" source="Nr2SSn5EmaQHxqe58D5D-16" target="Nr2SSn5EmaQHxqe58D5D-21">
          <mxGeometry relative="1" as="geometry" />
        </mxCell>
        <mxCell id="Nr2SSn5EmaQHxqe58D5D-16" value="Departamento" style="rounded=0;whiteSpace=wrap;html=1;" vertex="1" parent="1">
          <mxGeometry x="190" y="490" width="120" height="60" as="geometry" />
        </mxCell>
        <mxCell id="Nr2SSn5EmaQHxqe58D5D-17" value="Pertenece" style="rhombus;whiteSpace=wrap;html=1;" vertex="1" parent="1">
          <mxGeometry x="200" y="340" width="120" height="80" as="geometry" />
        </mxCell>
        <mxCell id="Nr2SSn5EmaQHxqe58D5D-18" value="" style="endArrow=none;html=1;rounded=0;entryX=0.5;entryY=1;entryDx=0;entryDy=0;" edge="1" parent="1" target="Nr2SSn5EmaQHxqe58D5D-1">
          <mxGeometry width="50" height="50" relative="1" as="geometry">
            <mxPoint x="260" y="340" as="sourcePoint" />
            <mxPoint x="310" y="290" as="targetPoint" />
          </mxGeometry>
        </mxCell>
        <mxCell id="Nr2SSn5EmaQHxqe58D5D-19" value="" style="endArrow=none;html=1;rounded=0;" edge="1" parent="1">
          <mxGeometry width="50" height="50" relative="1" as="geometry">
            <mxPoint x="259" y="490" as="sourcePoint" />
            <mxPoint x="260" y="420" as="targetPoint" />
          </mxGeometry>
        </mxCell>
        <mxCell id="Nr2SSn5EmaQHxqe58D5D-20" value="id_departamento" style="ellipse;whiteSpace=wrap;html=1;" vertex="1" parent="1">
          <mxGeometry x="40" y="520" width="110" height="50" as="geometry" />
        </mxCell>
        <mxCell id="Nr2SSn5EmaQHxqe58D5D-21" value="departamento" style="ellipse;whiteSpace=wrap;html=1;" vertex="1" parent="1">
          <mxGeometry x="140" y="580" width="110" height="50" as="geometry" />
        </mxCell>
        <mxCell id="Nr2SSn5EmaQHxqe58D5D-29" style="edgeStyle=orthogonalEdgeStyle;rounded=0;orthogonalLoop=1;jettySize=auto;html=1;exitX=0.5;exitY=0;exitDx=0;exitDy=0;entryX=0.5;entryY=1;entryDx=0;entryDy=0;" edge="1" parent="1" source="Nr2SSn5EmaQHxqe58D5D-24" target="Nr2SSn5EmaQHxqe58D5D-28">
          <mxGeometry relative="1" as="geometry" />
        </mxCell>
        <mxCell id="Nr2SSn5EmaQHxqe58D5D-31" style="edgeStyle=orthogonalEdgeStyle;rounded=0;orthogonalLoop=1;jettySize=auto;html=1;exitX=1;exitY=0.5;exitDx=0;exitDy=0;entryX=0;entryY=0.5;entryDx=0;entryDy=0;" edge="1" parent="1" source="Nr2SSn5EmaQHxqe58D5D-24" target="Nr2SSn5EmaQHxqe58D5D-30">
          <mxGeometry relative="1" as="geometry" />
        </mxCell>
        <mxCell id="Nr2SSn5EmaQHxqe58D5D-24" value="proyecto" style="rounded=0;whiteSpace=wrap;html=1;" vertex="1" parent="1">
          <mxGeometry x="600" y="270" width="120" height="60" as="geometry" />
        </mxCell>
        <mxCell id="Nr2SSn5EmaQHxqe58D5D-25" value="Pertenece" style="rhombus;whiteSpace=wrap;html=1;" vertex="1" parent="1">
          <mxGeometry x="420" y="260" width="120" height="80" as="geometry" />
        </mxCell>
        <mxCell id="Nr2SSn5EmaQHxqe58D5D-26" value="" style="endArrow=none;html=1;rounded=0;entryX=0;entryY=0.5;entryDx=0;entryDy=0;" edge="1" parent="1" target="Nr2SSn5EmaQHxqe58D5D-25">
          <mxGeometry width="50" height="50" relative="1" as="geometry">
            <mxPoint x="340" y="190" as="sourcePoint" />
            <mxPoint x="390" y="190" as="targetPoint" />
          </mxGeometry>
        </mxCell>
        <mxCell id="Nr2SSn5EmaQHxqe58D5D-27" value="" style="endArrow=none;html=1;rounded=0;entryX=0;entryY=0.5;entryDx=0;entryDy=0;" edge="1" parent="1" target="Nr2SSn5EmaQHxqe58D5D-24">
          <mxGeometry width="50" height="50" relative="1" as="geometry">
            <mxPoint x="540" y="300" as="sourcePoint" />
            <mxPoint x="590" y="250" as="targetPoint" />
          </mxGeometry>
        </mxCell>
        <mxCell id="Nr2SSn5EmaQHxqe58D5D-28" value="id_proyecto" style="ellipse;whiteSpace=wrap;html=1;" vertex="1" parent="1">
          <mxGeometry x="610" y="205" width="100" height="40" as="geometry" />
        </mxCell>
        <mxCell id="Nr2SSn5EmaQHxqe58D5D-30" value="nombre_proyecto" style="ellipse;whiteSpace=wrap;html=1;" vertex="1" parent="1">
          <mxGeometry x="750" y="280" width="100" height="40" as="geometry" />
        </mxCell>
        <mxCell id="Nr2SSn5EmaQHxqe58D5D-32" value="1" style="text;html=1;strokeColor=none;fillColor=none;align=center;verticalAlign=middle;whiteSpace=wrap;rounded=0;" vertex="1" parent="1">
          <mxGeometry x="220" y="250" width="60" height="30" as="geometry" />
        </mxCell>
        <mxCell id="Nr2SSn5EmaQHxqe58D5D-35" value="1" style="text;html=1;strokeColor=none;fillColor=none;align=center;verticalAlign=middle;whiteSpace=wrap;rounded=0;" vertex="1" parent="1">
          <mxGeometry x="240" y="250" width="60" height="30" as="geometry" />
        </mxCell>
        <mxCell id="Nr2SSn5EmaQHxqe58D5D-36" value="n" style="text;html=1;strokeColor=none;fillColor=none;align=center;verticalAlign=middle;whiteSpace=wrap;rounded=0;" vertex="1" parent="1">
          <mxGeometry x="240" y="440" width="60" height="30" as="geometry" />
        </mxCell>
        <mxCell id="Nr2SSn5EmaQHxqe58D5D-37" value="1" style="text;html=1;strokeColor=none;fillColor=none;align=center;verticalAlign=middle;whiteSpace=wrap;rounded=0;" vertex="1" parent="1">
          <mxGeometry x="220" y="440" width="60" height="30" as="geometry" />
        </mxCell>
        <mxCell id="Nr2SSn5EmaQHxqe58D5D-38" value="1" style="text;html=1;strokeColor=none;fillColor=none;align=center;verticalAlign=middle;whiteSpace=wrap;rounded=0;" vertex="1" parent="1">
          <mxGeometry x="320" y="220" width="60" height="30" as="geometry" />
        </mxCell>
        <mxCell id="Nr2SSn5EmaQHxqe58D5D-39" value="1" style="text;html=1;strokeColor=none;fillColor=none;align=center;verticalAlign=middle;whiteSpace=wrap;rounded=0;" vertex="1" parent="1">
          <mxGeometry x="350" y="205" width="60" height="30" as="geometry" />
        </mxCell>
        <mxCell id="Nr2SSn5EmaQHxqe58D5D-41" value="1" style="text;html=1;strokeColor=none;fillColor=none;align=center;verticalAlign=middle;whiteSpace=wrap;rounded=0;" vertex="1" parent="1">
          <mxGeometry x="540" y="300" width="60" height="30" as="geometry" />
        </mxCell>
        <mxCell id="Nr2SSn5EmaQHxqe58D5D-42" value="n" style="text;html=1;strokeColor=none;fillColor=none;align=center;verticalAlign=middle;whiteSpace=wrap;rounded=0;" vertex="1" parent="1">
          <mxGeometry x="540" y="270" width="60" height="30" as="geometry" />
        </mxCell>
        <mxCell id="Nr2SSn5EmaQHxqe58D5D-43" value="Pertenece" style="rhombus;whiteSpace=wrap;html=1;" vertex="1" parent="1">
          <mxGeometry x="340" y="40" width="120" height="80" as="geometry" />
        </mxCell>
        <mxCell id="Nr2SSn5EmaQHxqe58D5D-46" style="edgeStyle=orthogonalEdgeStyle;rounded=0;orthogonalLoop=1;jettySize=auto;html=1;exitX=0.25;exitY=0;exitDx=0;exitDy=0;entryX=0.791;entryY=0.98;entryDx=0;entryDy=0;entryPerimeter=0;" edge="1" parent="1" source="Nr2SSn5EmaQHxqe58D5D-1" target="Nr2SSn5EmaQHxqe58D5D-7">
          <mxGeometry relative="1" as="geometry" />
        </mxCell>
        <mxCell id="Nr2SSn5EmaQHxqe58D5D-53" style="edgeStyle=orthogonalEdgeStyle;rounded=0;orthogonalLoop=1;jettySize=auto;html=1;exitX=0.5;exitY=0;exitDx=0;exitDy=0;entryX=0.5;entryY=1;entryDx=0;entryDy=0;" edge="1" parent="1" source="Nr2SSn5EmaQHxqe58D5D-48" target="Nr2SSn5EmaQHxqe58D5D-52">
          <mxGeometry relative="1" as="geometry" />
        </mxCell>
        <mxCell id="Nr2SSn5EmaQHxqe58D5D-55" style="edgeStyle=orthogonalEdgeStyle;rounded=0;orthogonalLoop=1;jettySize=auto;html=1;exitX=1;exitY=0.5;exitDx=0;exitDy=0;entryX=0.5;entryY=1;entryDx=0;entryDy=0;" edge="1" parent="1" source="Nr2SSn5EmaQHxqe58D5D-48" target="Nr2SSn5EmaQHxqe58D5D-54">
          <mxGeometry relative="1" as="geometry" />
        </mxCell>
        <mxCell id="Nr2SSn5EmaQHxqe58D5D-48" value="cargos" style="rounded=0;whiteSpace=wrap;html=1;" vertex="1" parent="1">
          <mxGeometry x="460" y="-30" width="120" height="40" as="geometry" />
        </mxCell>
        <mxCell id="Nr2SSn5EmaQHxqe58D5D-50" value="" style="endArrow=none;html=1;rounded=0;" edge="1" parent="1">
          <mxGeometry width="50" height="50" relative="1" as="geometry">
            <mxPoint x="340" y="160" as="sourcePoint" />
            <mxPoint x="390" y="110" as="targetPoint" />
          </mxGeometry>
        </mxCell>
        <mxCell id="Nr2SSn5EmaQHxqe58D5D-51" value="" style="endArrow=none;html=1;rounded=0;" edge="1" parent="1">
          <mxGeometry width="50" height="50" relative="1" as="geometry">
            <mxPoint x="430" y="60" as="sourcePoint" />
            <mxPoint x="480" y="10" as="targetPoint" />
          </mxGeometry>
        </mxCell>
        <mxCell id="Nr2SSn5EmaQHxqe58D5D-52" value="ID_cargo" style="ellipse;whiteSpace=wrap;html=1;" vertex="1" parent="1">
          <mxGeometry x="465" y="-140" width="110" height="50" as="geometry" />
        </mxCell>
        <mxCell id="Nr2SSn5EmaQHxqe58D5D-54" value="tipo_cargo" style="ellipse;whiteSpace=wrap;html=1;" vertex="1" parent="1">
          <mxGeometry x="590" y="-100" width="110" height="50" as="geometry" />
        </mxCell>
        <mxCell id="Nr2SSn5EmaQHxqe58D5D-56" value="n" style="text;html=1;strokeColor=none;fillColor=none;align=center;verticalAlign=middle;whiteSpace=wrap;rounded=0;" vertex="1" parent="1">
          <mxGeometry x="410" y="10" width="60" height="30" as="geometry" />
        </mxCell>
        <mxCell id="Nr2SSn5EmaQHxqe58D5D-57" value="1" style="text;html=1;strokeColor=none;fillColor=none;align=center;verticalAlign=middle;whiteSpace=wrap;rounded=0;" vertex="1" parent="1">
          <mxGeometry x="440" y="30" width="60" height="30" as="geometry" />
        </mxCell>
        <mxCell id="Nr2SSn5EmaQHxqe58D5D-58" value="1" style="text;html=1;strokeColor=none;fillColor=none;align=center;verticalAlign=middle;whiteSpace=wrap;rounded=0;" vertex="1" parent="1">
          <mxGeometry x="340" y="130" width="60" height="30" as="geometry" />
        </mxCell>
        <mxCell id="Nr2SSn5EmaQHxqe58D5D-59" value="1" style="text;html=1;strokeColor=none;fillColor=none;align=center;verticalAlign=middle;whiteSpace=wrap;rounded=0;" vertex="1" parent="1">
          <mxGeometry x="310" y="110" width="60" height="30" as="geometry" />
        </mxCell>
        <mxCell id="Nr2SSn5EmaQHxqe58D5D-60" value="ID_cargo" style="ellipse;whiteSpace=wrap;html=1;" vertex="1" parent="1">
          <mxGeometry x="240" y="30" width="110" height="50" as="geometry" />
        </mxCell>
      </root>
    </mxGraphModel>
  </diagram>
</mxfile>
